<svg width="80" height="80" viewBox="0 0 80 80" fill="none" xmlns="http://www.w3.org/2000/svg">
<path d="M63.5938 0H16.4062C7.35984 0 0 7.35984 0 16.4062V63.5938C0 72.6402 7.35984 80 16.4062 80H63.5938C72.6402 80 80 72.6402 80 63.5938V16.4062C80 7.35984 72.6402 0 63.5938 0ZM75.3125 63.5938C75.3125 70.0555 70.0555 75.3125 63.5938 75.3125H16.4062C9.94453 75.3125 4.6875 70.0555 4.6875 63.5938V16.4062C4.6875 9.94453 9.94453 4.6875 16.4062 4.6875H63.5938C70.0555 4.6875 75.3125 9.94453 75.3125 16.4062V63.5938Z" fill="url(#paint0_linear_1_184)"/>
<path d="M47.7572 19.3017C47.487 18.2939 46.8408 17.4514 45.9372 16.9298C44.0722 15.8529 41.6784 16.494 40.6012 18.3597L40 19.4009L39.3987 18.3595C38.3217 16.4943 35.9281 15.8529 34.0628 16.9297H34.0627C32.1973 18.0067 31.5561 20.4003 32.633 22.2657L35.4894 27.2132L24.9497 45.4687H17.2656C15.1117 45.4687 13.3594 47.2211 13.3594 49.375C13.3594 51.5289 15.1117 53.2812 17.2656 53.2812H46.9312L42.4206 45.4687H33.9708L47.3669 22.2659C47.8886 21.3623 48.0273 20.3095 47.7572 19.3017Z" fill="url(#paint1_linear_1_184)"/>
<path d="M62.7342 45.4687H55.0501L46.3147 30.3384L41.8042 38.1509L55.3673 61.6428C55.889 62.5465 56.7312 63.1929 57.7394 63.4631C58.0759 63.5532 58.4173 63.5979 58.7567 63.5979C59.4336 63.5979 60.1017 63.4204 60.7037 63.0727C62.569 61.9957 63.2103 59.602 62.1333 57.7368L59.5606 53.2812H62.7342C64.8881 53.2812 66.6404 51.5288 66.6404 49.3749C66.6404 47.221 64.8881 45.4687 62.7342 45.4687Z" fill="url(#paint2_linear_1_184)"/>
<path d="M18.635 56.4062L17.8667 57.7369C16.7898 59.6022 17.4313 61.9959 19.2966 63.0728C19.9102 63.427 20.5808 63.5955 21.2431 63.5953C22.5941 63.5953 23.9098 62.8947 24.6327 61.643L27.6561 56.4062H18.635Z" fill="url(#paint3_linear_1_184)"/>
<defs>
<linearGradient id="paint0_linear_1_184" x1="0" y1="0" x2="89.0963" y2="10.0218" gradientUnits="userSpaceOnUse">
<stop stop-color="#EAC46D"/>
<stop offset="1" stop-color="#CA8A33"/>
</linearGradient>
<linearGradient id="paint1_linear_1_184" x1="13.3594" y1="16.4072" x2="51.8777" y2="20.4648" gradientUnits="userSpaceOnUse">
<stop stop-color="#EAC46D"/>
<stop offset="1" stop-color="#CA8A33"/>
</linearGradient>
<linearGradient id="paint2_linear_1_184" x1="41.8042" y1="30.3384" x2="69.6182" y2="32.6746" gradientUnits="userSpaceOnUse">
<stop stop-color="#EAC46D"/>
<stop offset="1" stop-color="#CA8A33"/>
</linearGradient>
<linearGradient id="paint3_linear_1_184" x1="17.3442" y1="56.4063" x2="28.6788" y2="58.235" gradientUnits="userSpaceOnUse">
<stop stop-color="#EAC46D"/>
<stop offset="1" stop-color="#CA8A33"/>
</linearGradient>
</defs>
</svg>
