<svg width="48" height="48" viewBox="0 0 48 48" fill="none" xmlns="http://www.w3.org/2000/svg">
<path d="M24 0C10.7665 0 0 10.7665 0 24C0 37.2326 10.7665 48 24 48C37.2326 48 48 37.2326 48 24C48 10.7665 37.2345 0 24 0ZM29.9686 24.8449H26.064V38.7619H20.2781C20.2781 38.7619 20.2781 31.1577 20.2781 24.8449H17.5278V19.9262H20.2781V16.7447C20.2781 14.4661 21.3608 10.9057 26.1171 10.9057L30.4046 10.9221V15.6968C30.4046 15.6968 27.7992 15.6968 27.2927 15.6968C26.7861 15.6968 26.0659 15.95 26.0659 17.0367V19.9272H30.4742L29.9686 24.8449Z" fill="url(#paint0_linear_6_766)"/>
<defs>
<linearGradient id="paint0_linear_6_766" x1="0" y1="0" x2="53.4578" y2="6.01308" gradientUnits="userSpaceOnUse">
<stop stop-color="#EAC46D"/>
<stop offset="1" stop-color="#CA8A33"/>
</linearGradient>
</defs>
</svg>
