<svg width="48" height="48" viewBox="0 0 48 48" fill="none" xmlns="http://www.w3.org/2000/svg">
<path d="M24 0C10.7665 0 0 10.7665 0 24C0 37.2326 10.7665 48 24 48C37.2326 48 48 37.2326 48 24C48 10.7665 37.2345 0 24 0ZM34.7065 18.507C34.7171 18.7449 34.7229 18.9846 34.7229 19.2244C34.7229 26.5241 29.1681 34.9385 19.0049 34.9385C15.8853 34.9385 12.9812 34.0269 10.5373 32.4589C10.9695 32.5101 11.4093 32.5362 11.855 32.5362C14.4439 32.5362 16.8249 31.6526 18.7159 30.1716C16.299 30.1271 14.2583 28.5301 13.5555 26.3346C13.8919 26.3984 14.2389 26.4342 14.5937 26.4342C15.0974 26.4342 15.5866 26.3685 16.0496 26.2418C13.5226 25.7353 11.6191 23.5031 11.6191 20.8253C11.6191 20.8021 11.6191 20.7779 11.6201 20.7557C12.3645 21.1684 13.2161 21.4179 14.121 21.4459C12.64 20.4569 11.6645 18.7652 11.6645 16.8491C11.6645 15.836 11.9362 14.8866 12.4118 14.0707C15.1351 17.4137 19.207 19.612 23.797 19.844C23.7022 19.439 23.6549 19.0184 23.6549 18.5844C23.6549 15.5344 26.1278 13.0605 29.1778 13.0605C30.7671 13.0605 32.2008 13.7314 33.21 14.8045C34.4697 14.557 35.6491 14.0988 36.7192 13.4636C36.3035 14.7542 35.4306 15.836 34.287 16.5204C35.4055 16.387 36.4727 16.0912 37.4598 15.6513C36.7231 16.7573 35.7863 17.7308 34.7065 18.507V18.507Z" fill="url(#paint0_linear_6_769)"/>
<defs>
<linearGradient id="paint0_linear_6_769" x1="0" y1="0" x2="53.4578" y2="6.01308" gradientUnits="userSpaceOnUse">
<stop stop-color="#EAC46D"/>
<stop offset="1" stop-color="#CA8A33"/>
</linearGradient>
</defs>
</svg>
