<svg width="48" height="48" viewBox="0 0 48 48" fill="none" xmlns="http://www.w3.org/2000/svg">
<g clip-path="url(#clip0_6_759)">
<path d="M33.6354 17.005L21.4636 26.9541L20.8908 27.4232C20.765 27.5229 20.6829 27.6676 20.6617 27.8268L20.5336 28.885L20.1817 31.8577C20.185 31.8939 20.1737 31.9299 20.1505 31.9577C20.1272 31.9856 20.0938 32.0031 20.0576 32.0063C20.0215 32.0096 19.9855 31.9984 19.9576 31.9751C19.9298 31.9518 19.9123 31.9184 19.909 31.8823L18.919 28.9095L17.8963 25.8686C17.8527 25.7323 17.8582 25.5851 17.9121 25.4525C17.9659 25.3199 18.0645 25.2105 18.1908 25.1432L30.8563 17.8832L33.2399 16.5195C33.5863 16.3177 33.9408 16.7541 33.6354 17.005V17.005Z" fill="url(#paint0_linear_6_759)"/>
<path d="M24 0C19.2532 0 14.6131 1.40758 10.6663 4.04473C6.71951 6.68188 3.64337 10.4302 1.82686 14.8156C0.0103608 19.201 -0.46492 24.0266 0.461126 28.6822C1.38717 33.3377 3.67295 37.6141 7.02941 40.9706C10.3859 44.327 14.6623 46.6128 19.3178 47.5388C23.9734 48.4649 28.799 47.9896 33.1844 46.1731C37.5698 44.3566 41.3181 41.2805 43.9553 37.3337C46.5924 33.3869 48 28.7468 48 24C48 17.6348 45.4714 11.5303 40.9706 7.02944C36.4697 2.52856 30.3652 0 24 0V0ZM38.97 13.8927L34.2845 34.5955C34.0636 35.5664 32.8309 36.0055 31.9664 35.4136L24.8918 30.6136L21.2891 34.02C21.1422 34.1578 20.9638 34.2578 20.7696 34.3111C20.5753 34.3644 20.371 34.3695 20.1743 34.326C19.9776 34.2825 19.7945 34.1916 19.6409 34.0613C19.4872 33.931 19.3677 33.7651 19.2927 33.5782L17.9918 29.76L16.6909 25.9418L9.71725 24.0327C9.52227 23.9902 9.34681 23.8844 9.21816 23.7318C9.08951 23.5792 9.01487 23.3884 9.00585 23.189C8.99683 22.9897 9.05393 22.7929 9.16828 22.6293C9.28263 22.4658 9.44782 22.3445 9.63816 22.2845L36.5782 12.5782L37.0745 12.4009C38.1191 12.0355 39.1991 12.8809 38.97 13.8927V13.8927Z" fill="url(#paint1_linear_6_759)"/>
</g>
<defs>
<linearGradient id="paint0_linear_6_759" x1="17.8672" y1="16.4678" x2="35.5478" y2="18.5007" gradientUnits="userSpaceOnUse">
<stop stop-color="#EAC46D"/>
<stop offset="1" stop-color="#CA8A33"/>
</linearGradient>
<linearGradient id="paint1_linear_6_759" x1="-3.8147e-05" y1="0" x2="53.4578" y2="6.01309" gradientUnits="userSpaceOnUse">
<stop stop-color="#EAC46D"/>
<stop offset="1" stop-color="#CA8A33"/>
</linearGradient>
<clipPath id="clip0_6_759">
<rect width="48" height="48" fill="white"/>
</clipPath>
</defs>
</svg>
